<svg version="1.2" xmlns="http://www.w3.org/2000/svg" viewBox="140 180 1170 730" width="1170" height="730">
	<style>
		.s0 { fill: #ffffff;stroke: #000000;stroke-miterlimit:10 } 
		.s1 { fill: #ffffff } 
		.s2 { fill: #d39e25 } 
	</style>
	<g id="Camada 1">
		<path id="&lt;Path&gt;" class="s0" d="m339.73 206.23v518.71c0 3.58 2.9 6.49 6.49 6.49h115.3c3.58 0 6.49-2.91 6.49-6.49v-224.21c0-3.65 3.01-6.58 6.66-6.49l166.56 4.35c4.33 0.11 7.55-3.96 6.45-8.15l-12.78-48.54c-0.74-2.84-3.29-4.82-6.22-4.85l-157.48-1.47c-3.57-0.03-6.44-2.93-6.44-6.5v-222.85c0-3.58-2.9-6.49-6.49-6.49h-112.05c-3.59 0-6.49 2.91-6.49 6.49z"/>
		<path id="&lt;Path&gt;" class="s1" d="m812.87 353.23c-70.28 96.1-101.93 223.44-99.69 378.2h99.69z"/>
		<path id="&lt;Path&gt;" class="s2" d="m556.25 292.05c100.27 97.58 127.88 254.18 120.27 439.38h17.4q5.94-322.81 162.2-444.13c-62.35 22.83-116.9 55.89-159.03 105.23-42.86-41.69-89.72-75.35-140.84-100.48z"/>
		<path id="&lt;Path&gt;" class="s2" d="m748.12 283.74c0 28.18-23.61 51.03-52.74 51.03-29.14 0-52.75-22.85-52.75-51.03 0-28.19 23.61-51.03 52.75-51.03 29.13 0 52.74 22.84 52.74 51.03z"/>
		<path id="&lt;Path&gt;" class="s2" d="m812.87 204.68l1.37 52.09c0.05 1.86 1.57 3.34 3.43 3.34h110.79q0.24 0 0.47 0.03c65.68 8.66 93.7 40.09 93.61 88.51 0.77 58.9-34.43 84.4-93.17 88.03q-0.13 0.01-0.25 0.01l-84.27-0.37c-2.71-0.01-4.36 3-2.9 5.29l184.42 287.36c0.63 0.99 1.73 1.58 2.9 1.58l131.63-0.38c2.76-0.01 4.38-3.12 2.8-5.39l-157.98-226.38c-1.3-1.86-0.47-4.45 1.67-5.2 81.76-28.45 121.64-77.55 122.38-145.96q0.01-0.18-0.01-0.36c-6.66-84.4-55.87-135.86-158.14-146.24q-0.19-0.02-0.38-0.02l-154.95 0.54c-1.93 0.01-3.47 1.6-3.42 3.52z"/>
		<g id="&lt;Group&gt;">
			<path id="&lt;Compound Path&gt;" class="s1" d="m213.6 882.16q-7.91 4.1-19.67 4.1-15.24 0-24.42-9.62-9.18-9.62-9.18-25.24 0-16.8 10.33-27.15 10.33-10.35 26.1-10.35 10.15 0 16.84 2.88v11.52q-7.08-4.2-15.62-4.2-11.38 0-18.43 7.28-7.06 7.27-7.06 19.43 0 11.58 6.59 18.44 6.6 6.86 17.34 6.86 9.91 0 17.18-4.69z"/>
			<path id="&lt;Compound Path&gt;" fill-rule="evenodd" class="s1" d="m264.47 886.26q-15.13 0-24.24-9.81-9.11-9.82-9.11-25.54 0-16.89 9.28-26.95 9.28-10.06 25.2-10.06 14.74 0 23.75 9.76 9.01 9.77 9.01 25.54 0 17.14-9.23 27.1-9.23 9.96-24.66 9.96zm0.54-62.16q-9.62 0-15.65 7.18-6.03 7.18-6.03 18.9 0 11.67 5.86 18.8 5.86 7.13 15.33 7.13 10.06 0 15.87-6.79 5.81-6.79 5.81-19 0-12.54-5.64-19.38-5.64-6.84-15.55-6.84z"/>
			<path id="&lt;Compound Path&gt;" class="s1" d="m380.58 885.09h-12.7l-33.45-51.46q-1.26-1.96-2.1-4.06h-0.29q0.39 2.25 0.39 9.62v45.9h-11.23v-70.02h13.53l32.32 50.24q2.05 3.13 2.64 4.3h0.19q-0.48-2.78-0.48-9.42v-45.12h11.18z"/>
			<path id="&lt;Compound Path&gt;" class="s1" d="m404.69 882.31v-11.97q1.61 1.47 3.83 2.64 2.22 1.17 4.71 1.98 2.49 0.8 4.98 1.24 2.49 0.44 4.59 0.44 7.33 0 10.92-2.44 3.59-2.44 3.59-7.08 0-2.49-1.2-4.32-1.2-1.83-3.35-3.34-2.14-1.52-5.05-2.91-2.9-1.39-6.22-2.91-3.57-1.9-6.65-3.85-3.07-1.96-5.34-4.32-2.27-2.37-3.57-5.35-1.29-2.98-1.29-6.98 0-4.93 2.22-8.57 2.22-3.64 5.86-6.01 3.64-2.37 8.28-3.51 4.64-1.15 9.47-1.15 10.99 0 16.02 2.49v11.47q-5.96-4.29-15.34-4.29-2.58 0-5.15 0.48-2.56 0.49-4.59 1.62-2.02 1.12-3.29 2.88-1.27 1.75-1.27 4.24 0 2.35 0.97 4.06 0.98 1.71 2.86 3.12 1.88 1.42 4.59 2.76 2.71 1.34 6.27 2.91 3.67 1.9 6.91 4 3.25 2.1 5.72 4.64 2.46 2.54 3.9 5.64 1.44 3.1 1.44 7.05 0 5.33-2.15 8.99-2.14 3.66-5.78 5.96-3.64 2.29-8.38 3.32-4.73 1.02-10.01 1.02-1.75 0-4.32-0.27-2.56-0.27-5.25-0.78-2.68-0.51-5.07-1.24-2.4-0.74-3.86-1.66z"/>
			<path id="&lt;Compound Path&gt;" class="s1" d="m526.21 856.77q0 29.49-27.93 29.49-26.76 0-26.76-28.37v-42.82h11.63v40.43q0 20.61 16.01 20.61 15.43 0 15.43-19.88v-41.16h11.62z"/>
			<path id="&lt;Compound Path&gt;" class="s1" d="m591.44 885.09h-38.77v-70.02h11.62v60.21h27.15z"/>
			<path id="&lt;Compound Path&gt;" class="s1" d="m650.46 824.93h-20.12v60.16h-11.62v-60.16h-20.07v-9.86h51.81z"/>
			<path id="&lt;Compound Path&gt;" fill-rule="evenodd" class="s1" d="m695.42 886.26q-15.14 0-24.24-9.81-9.11-9.82-9.11-25.54 0-16.89 9.28-26.95 9.28-10.06 25.19-10.06 14.75 0 23.76 9.76 9.01 9.77 9.01 25.54 0 17.14-9.23 27.1-9.23 9.96-24.66 9.96zm0.54-62.16q-9.62 0-15.65 7.18-6.03 7.18-6.03 18.9 0 11.67 5.86 18.8 5.86 7.13 15.33 7.13 10.06 0 15.87-6.79 5.81-6.79 5.81-19 0-12.54-5.64-19.38-5.64-6.84-15.55-6.84z"/>
			<path id="&lt;Compound Path&gt;" fill-rule="evenodd" class="s1" d="m806.25 885.09h-13.57l-11.18-18.75q-1.52-2.59-2.96-4.42-1.44-1.83-2.93-3-1.49-1.17-3.25-1.71-1.75-0.54-3.95-0.54h-4.69v28.42h-11.57v-70.02h23.05q4.93 0 9.08 1.17 4.15 1.17 7.22 3.54 3.08 2.37 4.81 5.91 1.74 3.54 1.74 8.28 0 3.71-1.1 6.81-1.1 3.1-3.13 5.52-2.02 2.41-4.88 4.12-2.86 1.71-6.42 2.64v0.19q1.9 1.08 3.32 2.37 1.42 1.3 2.69 2.66 1.27 1.37 2.51 3.1 1.25 1.74 2.76 4.03zm-42.53-60.59v22.75h9.67q2.68 0 4.95-0.83 2.27-0.83 3.94-2.39 1.65-1.56 2.58-3.81 0.93-2.25 0.93-5.03 0-5.03-3.17-7.86-3.18-2.83-9.13-2.83z"/>
			<path id="&lt;Compound Path&gt;" class="s1" d="m836.32 885.09h-11.96v-70.02h11.96z"/>
			<path id="&lt;Compound Path&gt;" fill-rule="evenodd" class="s1" d="m921.08 885.09h-12.75l-6.3-17.82h-27.54l-6.05 17.82h-12.7l26.22-70.02h13.09zm-22.12-27.29l-9.72-27.93q-0.44-1.37-0.92-4.4h-0.2q-0.44 2.78-0.98 4.4l-9.61 27.93z"/>
			<path id="&lt;Compound Path&gt;" fill-rule="evenodd" class="s1" d="m978.18 885.09v-70.02h20.22q38.72 0 38.72 34.13 0 16.21-10.74 26.05-10.74 9.84-28.81 9.84zm11.57-60.16v50.35h9.28q12.25 0 19.07-6.74 6.81-6.74 6.81-19.05 0-24.56-25.44-24.56z"/>
			<path id="&lt;Compound Path&gt;" class="s1" d="m1099.22 885.09h-39.31v-70.02h37.75v9.86h-26.13v19.83h24.08v9.81h-24.08v20.71h27.69z"/>
			<path id="&lt;Compound Path&gt;" fill-rule="evenodd" class="s1" d="m1213.26 885.09h-13.57l-11.18-18.75q-1.52-2.59-2.96-4.42-1.44-1.83-2.93-3-1.49-1.17-3.24-1.71-1.76-0.54-3.96-0.54h-4.69v28.42h-11.57v-70.02h23.05q4.93 0 9.08 1.17 4.15 1.17 7.23 3.54 3.07 2.37 4.81 5.91 1.73 3.54 1.73 8.28 0 3.71-1.1 6.81-1.1 3.1-3.12 5.52-2.03 2.41-4.89 4.12-2.85 1.71-6.42 2.64v0.19q1.91 1.08 3.32 2.37 1.42 1.3 2.69 2.66 1.27 1.37 2.51 3.1 1.25 1.74 2.76 4.03zm-42.53-60.59v22.75h9.67q2.69 0 4.96-0.83 2.27-0.83 3.93-2.39 1.66-1.56 2.58-3.81 0.93-2.25 0.93-5.03 0-5.03-3.17-7.86-3.18-2.83-9.13-2.83z"/>
			<path id="&lt;Compound Path&gt;" class="s1" d="m1287.67 885.09h-11.67v-30.37h-32.96v30.37h-11.62v-70.02h11.62v29.44h32.96v-29.44h11.67z"/>
		</g>
	</g>
</svg>
